<?xml version="1.0" encoding="utf-8"?>
<!-- Generator: Adobe Illustrator 15.1.0, SVG Export Plug-In . SVG Version: 6.00 Build 0)  -->
<!DOCTYPE svg PUBLIC "-//W3C//DTD SVG 1.1//EN" "http://www.w3.org/Graphics/SVG/1.1/DTD/svg11.dtd">
<svg version="1.1" id="Layer_1" xmlns="http://www.w3.org/2000/svg" xmlns:xlink="http://www.w3.org/1999/xlink" x="0px" y="0px"
	 width="800px" height="240px" viewBox="0 0 800 240" enable-background="new 0 0 800 240" xml:space="preserve">
<g>
	<path fill="#A20000" d="M116.25,144.66c-12.149,11.957-23.053,20.781-32.714,26.471c-9.663,5.691-20.327,8.537-31.996,8.537
		c-13.01,0-23.508-4.16-31.494-12.482c-7.988-8.322-11.98-19.273-11.98-32.857c0-20.277,7.03-38.619,21.091-55.025
		C43.218,62.9,58.808,54.697,75.932,54.697c8.896,0,16.021,2.296,21.379,6.887c5.356,4.592,8.035,10.618,8.035,18.079
		c0,19.801-21.044,35.871-63.131,48.209c3.825,18.654,13.821,27.98,29.987,27.98c6.313,0,12.339-1.697,18.079-5.094
		c5.739-3.395,14.396-10.928,25.97-22.6V144.66z M41.066,118.115c24.486-6.887,36.731-19.607,36.731-38.166
		c0-9.183-3.349-13.774-10.043-13.774c-6.313,0-12.339,4.807-18.079,14.42C43.936,90.209,41.066,102.715,41.066,118.115z"/>
</g>
<path fill="#0F0F0F" d="M230.065,179.736h-86.269V19.163h24.348v140.003h61.921V179.736z"/>
<path fill="#A20000" d="M262.594,46.24c-8.396,0-14.063-6.297-14.063-14.063c0-8.186,5.877-14.273,14.273-14.273
	s14.063,6.087,14.063,14.273C276.867,39.942,271.41,46.24,262.594,46.24z"/>
<rect x="250.42" y="63.871" fill="#0F0F0F" width="24.348" height="115.866"/>
<path fill="#0F0F0F" d="M330.809,80.244c6.927-11.755,18.891-18.682,35.053-18.682c26.447,0,44.709,23.299,44.709,58.563
	c0,42.189-24.559,61.92-48.487,61.92c-14.903,0-26.447-6.088-34.213-19.73h-0.63l-1.259,17.422h-20.78
	c0.42-7.768,0.84-20.361,0.84-30.855V11.396h24.348v68.848H330.809z M330.389,133.979c0,14.691,10.495,28.545,26.447,28.545
	c18.681,0,28.966-16.582,28.966-41.35c0-21.83-9.445-40.092-28.756-40.092c-15.322,0-26.657,14.904-26.657,30.227V133.979z"/>
<path fill="#0F0F0F" d="M492.638,85.49c-2.099-0.42-4.408-0.629-7.137-0.629c-16.372,0-26.657,13.434-26.657,33.584v61.291h-24.349
	V99.344c0-13.434-0.21-24.559-0.839-35.263h21.199l0.84,21.201h0.84c5.247-14.694,17.422-23.719,30.016-23.719
	c2.309,0,3.988,0.21,6.087,0.63V85.49z"/>
<path fill="#0F0F0F" d="M592.545,152.238c0,9.865,0.21,19.941,1.68,27.498h-22.04l-1.679-13.434h-0.63
	c-6.507,9.025-17.842,15.742-32.324,15.742c-21.62,0-34.004-15.953-34.004-33.795c0-28.756,24.978-43.029,64.648-43.029
	c0-8.605,0-25.816-23.299-25.816c-10.285,0-20.779,3.148-28.126,7.977l-5.038-16.164c8.187-5.247,21.83-9.655,37.362-9.655
	c34.004,0,43.449,22.459,43.449,47.018V152.238z M568.826,121.594c-19.101,0-41.14,3.568-41.14,24.139
	c0,12.803,7.976,18.471,17.002,18.471c13.224,0,24.138-10.074,24.138-23.508V121.594z"/>
<path fill="#0F0F0F" d="M681.328,85.49c-2.099-0.42-4.408-0.629-7.137-0.629c-16.372,0-26.657,13.434-26.657,33.584v61.291h-24.349
	V99.344c0-13.434-0.21-24.559-0.839-35.263h21.199l0.84,21.201h0.84c5.247-14.694,17.422-23.719,30.016-23.719
	c2.309,0,3.988,0.21,6.087,0.63V85.49z"/>
<path fill="#0F0F0F" d="M791.73,64.081l-27.917,80.183c-13.643,37.99-23.299,59.4-37.152,72.834
	c-10.494,9.656-21.199,13.645-26.867,14.902l-6.297-20.568c25.188-9.027,34.214-32.535,34.214-35.684c0-1.26-0.21-2.729-1.259-5.037
	L686.78,64.081h26.657l20.99,65.07c2.31,7.557,4.618,16.371,6.297,23.088h0.63c1.68-6.717,3.988-15.322,6.087-23.088l18.682-65.07
	H791.73z"/>
</svg>
